Coordinates
version=1
nRows=22
nColumns=24
inDegrees=yes

Units are S.I. units (second, meters, Newtons, ...)
Angles are in degrees.

endheader
time	pelvis_tilt	pelvis_list	pelvis_rotation	pelvis_tx	pelvis_ty	pelvis_tz	hip_flexion_r	hip_adduction_r	hip_rotation_r	knee_angle_r	ankle_angle_r	subtalar_angle_r	mtp_angle_r	hip_flexion_l	hip_adduction_l	hip_rotation_l	knee_angle_l	ankle_angle_l	subtalar_angle_l	mtp_angle_l	lumbar_extension	lumbar_bending	lumbar_rotation
      5.97000000	      2.38514159	     -2.63143499	      2.48491571	      2.65418219	      0.94999718	     -0.20238039	      5.34327035	      8.71194178	      0.26943249	    -17.62267809	     17.46410107	     -2.49436845	      0.00000000	     18.22643751	     -2.17316058	     -2.85583695	    -59.95756684	      8.76771527	      1.62254310	      0.00000000	    -17.12632633	      3.61900398	     -4.28872682
      5.98000000	      2.14379371	     -2.43979457	      2.09967070	      2.66552655	      0.95115087	     -0.20180744	      4.30969613	      8.50302490	      0.46499613	    -16.65642259	     17.60571741	     -2.07904001	      0.00000000	     19.53403674	     -1.98676771	     -3.32524083	    -58.34204832	      9.32939167	      1.07390446	      0.00000000	    -16.97170119	      3.28415477	     -3.96298140
      5.99000000	      1.90225154	     -2.32046612	      1.71956083	      2.67681031	      0.95198126	     -0.20127944	      3.30859471	      8.36049523	      0.62743615	    -15.72189589	     17.71491651	     -1.69985501	      0.00000000	     20.77093317	     -1.88540720	     -3.76513782	    -56.51044460	      9.83233179	      0.62814642	      0.00000000	    -16.82440767	      3.04753872	     -3.64267169
      6.00000000	      1.67521508	     -2.26486377	      1.33732147	      2.68808175	      0.95252889	     -0.20077942	      2.31803517	      8.28126541	      0.79777085	    -14.82641211	     17.85016523	     -1.30371845	      0.00000000	     21.89864359	     -1.84555828	     -4.14593652	    -54.43849614	     10.21372227	      0.28248657	      0.00000000	    -16.68256099	      2.89328081	     -3.28482672
      6.01000000	      1.44875773	     -2.29030520	      0.97171475	      2.69933925	      0.95273882	     -0.20033673	      1.34294970	      8.28102003	      0.93583505	    -13.94902991	     17.92780601	     -0.98567991	      0.00000000	     22.95052112	     -1.88921281	     -4.46870661	    -52.17073251	     10.62626671	      0.09123093	      0.00000000	    -16.53954587	      2.85087582	     -2.95909147
      6.02000000	      1.26667185	     -2.37240449	      0.62245184	      2.71060574	      0.95271220	     -0.19994656	      0.32169758	      8.33817752	      1.08670222	    -13.07851155	     18.05753015	     -0.65218350	      0.00000000	     23.86037537	     -1.97283578	     -4.69171382	    -49.68439155	     10.97445686	      0.13933247	      0.00000000	    -16.44627364	      2.88401172	     -2.61184289
      6.03000000	      1.06502358	     -2.51567845	      0.28615036	      2.72187932	      0.95234452	     -0.19963128	     -0.66993985	      8.45112096	      1.21592388	    -12.22536720	     18.14053935	     -0.37405026	      0.00000000	     24.70360871	     -2.09742731	     -4.80928455	    -47.00201339	     11.37333181	      0.36659459	      0.00000000	    -16.32727399	      3.01091629	     -2.28741291
      6.04000000	      0.90535352	     -2.70114668	     -0.03482569	      2.73320347	      0.95175677	     -0.19936486	     -1.71307739	      8.60252684	      1.34947225	    -11.37700404	     18.26250112	     -0.08193637	      0.00000000	     25.39722375	     -2.24272241	     -4.79586556	    -44.11401138	     11.78331696	      0.92245845	      0.00000000	    -16.25166707	      3.18474802	     -1.98658224
      6.05000000	      0.77169489	     -2.94295770	     -0.31227177	      2.74456080	      0.95092009	     -0.19921497	     -2.77420839	      8.79990649	      1.39446040	    -10.55868459	     18.43787948	      0.28002788	      0.00000000	     25.96991516	     -2.40265582	     -4.57827082	    -41.04790577	     12.19648395	      1.81169168	      0.00000000	    -16.20891807	      3.44302605	     -1.70598425
      6.06000000	      0.64565279	     -3.17882209	     -0.62760983	      2.75597080	      0.94986206	     -0.19908162	     -3.82822914	      8.97758597	      1.52042350	     -9.79480747	     18.64307444	      0.62857318	      0.00000000	     26.39953424	     -2.54132219	     -4.21679843	    -37.76433970	     12.49394995	      2.72566973	      0.00000000	    -16.17931829	      3.69292261	     -1.40511182
      6.07000000	      0.53723346	     -3.43471600	     -0.95219405	      2.76744036	      0.94859375	     -0.19899016	     -4.87335681	      9.15853985	      1.63953421	     -9.10650157	     18.88038864	      1.05400127	      0.00000000	     26.68674523	     -2.68445211	     -3.64806611	    -34.30607763	     12.69514772	      3.66681773	      0.00000000	    -16.17431649	      3.96623401	     -1.11015805
      6.08000000	      0.45267077	     -3.68441392	     -1.31577176	      2.77898068	      0.94715711	     -0.19890015	     -5.90340062	      9.31211349	      1.80424369	     -8.52236367	     19.17325600	      1.52726829	      0.00000000	     26.80841634	     -2.82557294	     -2.87633279	    -30.67991492	     12.70850945	      4.42061615	      0.00000000	    -16.20426999	      4.22415308	     -0.78311643
      6.09000000	      0.39561314	     -3.92900179	     -1.70940057	      2.79061277	      0.94557087	     -0.19882442	     -6.90918059	      9.43351775	      1.92848491	     -8.06400144	     19.58504036	      2.17958819	      0.00000000	     26.76259320	     -2.96886396	     -1.83850196	    -26.92226489	     12.47129436	      4.75389915	      0.00000000	    -16.27175505	      4.46981668	     -0.44967966
      6.10000000	      0.39394397	     -4.16564366	     -2.20974336	      2.80234641	      0.94391691	     -0.19858442	     -7.92852036	      9.52618218	      2.28863680	     -7.73195201	     19.92922932	      2.62415922	      0.00000000	     26.51423510	     -3.18887382	     -0.68545168	    -23.08218331	     12.01462568	      4.65607116	      0.00000000	    -16.40823787	      4.65696006	      0.03507048
      6.11000000	      0.42025984	     -4.43310998	     -2.76333639	      2.81415442	      0.94215470	     -0.19830646	     -8.90636251	      9.62414265	      2.69601733	     -7.56147287	     20.32624336	      3.10149120	      0.00000000	     26.12329480	     -3.48761257	      0.77537331	    -19.23802187	     11.21932614	      3.75326301	      0.00000000	    -16.60115668	      4.87401465	      0.54644314
      6.12000000	      0.45124106	     -4.71397199	     -3.41816576	      2.82608781	      0.94029605	     -0.19786144	     -9.82361187	      9.70659257	      3.18611341	     -7.54975308	     20.72059516	      3.56471212	      0.00000000	     25.63090499	     -3.91003689	      2.35624140	    -15.48064976	     10.18486254	      2.14430255	      0.00000000	    -16.79858249	      5.06269550	      1.17697111
      6.13000000	      0.48991966	     -5.02634493	     -4.15938749	      2.83812187	      0.93837593	     -0.19726579	    -10.68143143	      9.79359464	      3.74925718	     -7.69866797	     21.09148172	      3.97898261	      0.00000000	     25.08138745	     -4.48505512	      3.88598388	    -11.93675776	      8.94431407	      0.01238065	      0.00000000	    -17.01603565	      5.25172747	      1.89219035
      6.14000000	      0.42381663	     -5.38258378	     -4.99111721	      2.85023124	      0.93627094	     -0.19652164	    -11.34726664	      9.90733997	      4.35467272	     -8.03058610	     21.42591327	      4.38727127	      0.00000000	     24.66796418	     -5.22096223	      5.15357981	     -8.78414624	      7.67177383	     -2.38217730	      0.00000000	    -17.11577148	      5.47258659	      2.70007020
      6.15000000	      0.36457056	     -5.74401366	     -5.86014997	      2.86240022	      0.93422358	     -0.19571774	    -11.95336168	     10.00449842	      4.95196514	     -8.50723340	     21.70175167	      4.77807683	      0.00000000	     24.33566285	     -6.02828504	      5.74977780	     -6.15828121	      6.51730245	     -4.42267653	      0.00000000	    -17.24440035	      5.68271746	      3.51398779
      6.16000000	      0.29037451	     -6.06287493	     -6.75295608	      2.87465010	      0.93227210	     -0.19492682	    -12.47015048	     10.03361565	      5.48963547	     -9.12445179	     21.90069598	      5.19870768	      0.00000000	     24.12677111	     -6.79453924	      5.58209259	     -4.12582929	      5.65126762	     -5.88585969	      0.00000000	    -17.36333413	      5.83758295	      4.31940417
      6.17000000	      0.14789490	     -6.31443367	     -7.64201573	      2.88698217	      0.93037575	     -0.19421943	    -12.83236628	      9.98841704	      6.02317150	     -9.88545572	     22.02193376	      5.54802207	      0.00000000	     24.13325229	     -7.44802207	      4.55887984	     -2.76292138	      5.19303678	     -6.47279942	      0.00000000	    -17.39778557	      5.93619294	      5.05415272
      6.18000000	      0.05772375	     -6.48299325	     -8.47843156	      2.89949678	      0.92871260	     -0.19370440	    -13.18686407	      9.83333454	      6.43338186	    -10.74225921	     22.02492980	      5.93463906	      0.00000000	     24.14113912	     -7.92105556	      3.42757077	     -1.94507098	      4.82421516	     -7.15737464	      0.00000000	    -17.47600088	      5.95240037	      5.69343495
